<?xml version="1.0" standalone="no"?>
<!DOCTYPE svg PUBLIC "-//W3C//DTD SVG 20010904//EN"
 "http://www.w3.org/TR/2001/REC-SVG-20010904/DTD/svg10.dtd">
<svg version="1.0" xmlns="http://www.w3.org/2000/svg"
 width="512.000000pt" height="512.000000pt" viewBox="0 0 512.000000 512.000000"
 preserveAspectRatio="xMidYMid meet">
<metadata>
Created by potrace 1.11, written by Peter Selinger 2001-2013
</metadata>
<g transform="translate(0.000000,512.000000) scale(0.100000,-0.100000)"
fill="#000000" stroke="none">
<path d="M2755 4934 c-88 -102 -168 -196 -178 -210 l-18 -24 194 -227 195
-228 -63 -3 -62 -3 23 -112 c13 -62 23 -120 24 -129 0 -11 -17 -22 -52 -34
-174 -56 -397 -196 -550 -342 l-99 -96 -217 -1 c-223 -2 -282 -9 -462 -55
-468 -119 -886 -458 -1114 -900 -135 -264 -196 -514 -196 -810 0 -279 51 -506
170 -757 235 -496 674 -844 1225 -974 113 -27 496 -38 628 -19 308 44 620 182
862 380 141 116 312 311 391 445 24 41 27 43 87 49 231 26 485 118 682 246
362 237 603 591 697 1023 30 139 33 476 5 607 -75 350 -221 617 -469 855 -159
153 -365 283 -546 345 l-69 23 23 111 c32 155 35 145 -36 148 l-60 3 195 229
c107 126 195 229 195 230 0 1 -99 0 -220 -2 -121 -1 -220 -1 -220 1 0 2 18 90
40 196 22 105 40 198 40 206 0 13 -58 15 -442 15 l-443 -1 -160 -185z m836
-1260 c459 -87 839 -442 958 -899 164 -624 -195 -1278 -809 -1476 -47 -15 -86
-26 -88 -25 -1 2 7 38 17 82 35 142 45 236 44 414 -1 209 -22 347 -83 533
-150 462 -488 848 -925 1056 -44 21 -90 41 -103 45 -30 10 -23 18 61 75 179
121 387 195 597 215 71 6 248 -4 331 -20z m-1691 -569 c-47 -104 -89 -250
-112 -379 -26 -157 -21 -437 11 -584 135 -610 589 -1076 1190 -1225 30 -7 56
-18 59 -25 2 -6 -45 -60 -105 -120 -245 -245 -535 -380 -882 -412 -307 -28
-622 53 -886 228 -317 210 -526 517 -607 895 -31 146 -31 408 0 554 29 135 73
257 133 372 234 449 686 734 1201 760 l27 1 -29 -65z m507 -16 c341 -121 638
-381 800 -702 48 -96 108 -284 127 -396 20 -120 21 -341 1 -457 -16 -96 -74
-294 -85 -294 -34 0 -201 36 -265 57 -123 40 -201 78 -310 151 -220 146 -396
375 -480 626 -81 242 -85 515 -10 756 22 71 121 290 131 290 1 0 42 -14 91
-31z"/>
</g>
</svg>
