<svg xmlns="http://www.w3.org/2000/svg" viewBox="0 0 648 124" width="648" height="124">
	<style>
		tspan { white-space:pre }
		.shp0 { fill: #ff690f;stroke: #ffffff;stroke-width: 2 } 
		.shp1 { fill: #ffffff } 
	</style>
	<path id="path1697" class="shp0" d="M0 0L124 0L124 124L0 124L0 0Z" />
	<path id="path1699" class="shp1" d="M38.23 31.03L53.3 31.03L53.3 93.03L38.23 93.03L38.23 31.03Z" />
	<path id="path1701" class="shp1" d="M85.77 92.97L69.15 92.97L52 62L69.15 31.03L85.77 31.03L68.53 62L85.77 92.97Z" />
	<path id="path1704" class="shp0" d="M130.89 0L254.89 0L254.89 124L130.89 124L130.89 0Z" />
	<path id="path1706" fill-rule="evenodd" class="shp1" d="M181.65 84.07L178.96 93.08L162.9 93.08L183.31 30.92L202.47 30.92L222.72 93.08L206.3 93.08L203.61 84.17L181.65 84.07ZM192.63 48.74L185.38 71.89L199.88 71.89L192.63 48.74Z" />
	<path id="path1709" class="shp0" d="M261.73 0L385.73 0L385.73 124L261.73 124L261.73 0Z" />
	<path id="path1711" class="shp1" d="M331.5 93.08L316.32 93.08L316.32 65.68L295.96 30.92L313.88 30.92L323.93 49.98L333.83 30.92L351.49 30.92L331.5 65.68L331.5 93.08Z" />
	<path id="path2266" class="shp0" d="M392.61 0L516.61 0L516.61 124L392.61 124L392.61 0Z" />
	<path id="path2268" fill-rule="evenodd" class="shp1" d="M443.37 84.07L440.68 93.08L424.62 93.08L445.03 30.92L464.2 30.92L484.45 93.08L468.03 93.08L465.34 84.17L443.37 84.07ZM454.36 48.74L447.1 71.89L461.61 71.89L454.36 48.74Z" />
	<path id="path2274" class="shp0" d="M523.45 0L647.45 0L647.45 124L523.45 124L523.45 0Z" />
	<path id="path2276" class="shp1" d="M561.68 31.03L576.75 31.03L576.75 93.03L561.68 93.03L561.68 31.03Z" />
	<path id="path2278" class="shp1" d="M609.23 92.97L592.6 92.97L575.46 62L592.6 31.03L609.23 31.03L591.98 62L609.23 92.97Z" />
</svg>