<svg height="512" viewBox="0 0 512 512" width="512" xmlns="http://www.w3.org/2000/svg"><g id="Outline"><path d="m408 48h-16v-28.483a24 24 0 0 0 -28.707-23.535l-260.2 52.041a24.025 24.025 0 0 0 -23.093 23.977v400a24.028 24.028 0 0 0 24 24h304a24.028 24.028 0 0 0 24-24v-400a24.028 24.028 0 0 0 -24-24zm-41.569-36.328a8 8 0 0 1 9.569 7.845v28.483h-191.208zm-262.431 52.328h304a8.009 8.009 0 0 1 8 8v80h-32.179a23.987 23.987 0 0 0 -27.765-20.781l-66.14 11.02a20.933 20.933 0 0 0 -14.916-6.239h-38a20.933 20.933 0 0 0 -14.916 6.239l-66.135-11.019a23.986 23.986 0 0 0 -27.77 20.78h-32.179v-80a8.009 8.009 0 0 1 8-8zm280 104h32v16h-32zm-168 0h-32v16h32v10.554l-62.689 10.446a7.995 7.995 0 0 1 -9.311-7.89v-42.22a7.994 7.994 0 0 1 9.315-7.89l62.685 10.446zm6.084 41.761a21.017 21.017 0 0 0 8.93 5.358l-7.482 71.791-32.976 6.7 21.285-82.142zm14.916-9.761a5.006 5.006 0 0 1 -5-5v-38a5.006 5.006 0 0 1 5-5h38a5.006 5.006 0 0 1 5 5v38a5.006 5.006 0 0 1 -5 5zm52.916 9.761 10.243 1.707 21.285 82.142-32.976-6.7-7.482-71.791a21.017 21.017 0 0 0 8.93-5.358zm6.084-15.207v-10.554h32v-16h-32v-10.554l62.689-10.446a7.995 7.995 0 0 1 9.311 7.89v42.22a7.994 7.994 0 0 1 -9.315 7.89zm-168-10.554h-32v-16h32zm280 296h-304a8.009 8.009 0 0 1 -8-8v-272h32.179a23.979 23.979 0 0 0 27.765 20.781l38.623-6.435-22.712 87.647a8 8 0 0 0 9.337 9.847l51.281-10.42a8 8 0 0 0 6.364-7.011l8.172-78.409h17.982l8.172 78.409a8 8 0 0 0 6.364 7.011l51.281 10.42a8 8 0 0 0 9.337-9.847l-22.712-87.647 38.618 6.434a23.986 23.986 0 0 0 27.77-20.78h32.179v272a8.009 8.009 0 0 1 -8 8z"/><path d="m384 448h-256v-224h-16v232a8 8 0 0 0 8 8h272a8 8 0 0 0 8-8v-232h-16z"/><path d="m128 96h256v32h16v-40a8 8 0 0 0 -8-8h-272a8 8 0 0 0 -8 8v40h16z"/><path d="m184 336h16v16h-16z"/><path d="m216 336h128v16h-128z"/><path d="m168 368h176v16h-176z"/><path d="m168 400h160v16h-160z"/></g></svg>