<svg height="512" viewBox="0 0 512 512" width="512" xmlns="http://www.w3.org/2000/svg"><g id="Flat"><path d="m104 56 260.862-52.172a16 16 0 0 1 19.138 15.689v92.483z" fill="#e99180"/><rect fill="#f8caa8" height="432" rx="16" width="336" x="88" y="56"/><path d="m424 208h-32a21.186 21.186 0 0 1 -23.815 21.023l-40.185-5.023 32 104-64-16-8-88h-32l-12 84.467-52 11.533 24.755-96-72.837 6.022a22.1 22.1 0 0 1 -23.918-22.022h-32v-32h336z" fill="#f2bb94"/><path d="m332.4 304-51.28-10.42-7.25-69.58-2.29-21.96 32.42-7.04z" fill="#ed5749"/><path d="m304 195a29.034 29.034 0 0 1 -29 29h-1.13l-2.29-21.96z" fill="#e5493d"/><path d="m179.394 304 51.28-10.42 7.25-69.58 2.29-21.96-32.42-7.04z" fill="#ed5749"/><path d="m207.794 195a29.034 29.034 0 0 0 29 29h1.13l2.29-21.96z" fill="#e5493d"/><g fill="#e99180"><path d="m392 464h-272a8 8 0 0 1 -8-8v-232h16v224h256v-224h16v232a8 8 0 0 1 -8 8z"/><path d="m184 336h16v16h-16z"/><path d="m216 336h128v16h-128z"/><path d="m168 368h176v16h-176z"/><path d="m168 400h160v16h-160z"/></g><path d="m376 154.89v42.22a16 16 0 0 1 -18.63 15.78l-54.73-9.12-16.15-2.69v-50.16l16.15-2.69 54.73-9.12a16 16 0 0 1 18.63 15.78z" fill="#ed5749"/><path d="m376 160h48v32h-48z" fill="#ed5749"/><path d="m304 157v38a28.585 28.585 0 0 1 -1.36 8.77l-16.15-2.69v-50.16l16.15-2.69a28.585 28.585 0 0 1 1.36 8.77z" fill="#e5493d"/><path d="m288 168h40v16h-40z" fill="#e5493d"/><path d="m288 168h16v16h-16z" fill="#d4342f"/><path d="m376 160h16v32h-16z" fill="#e5493d"/><path d="m136 154.89v42.22a16 16 0 0 0 18.63 15.78l54.73-9.12 16.15-2.69v-50.16l-16.15-2.69-54.73-9.12a16 16 0 0 0 -18.63 15.78z" fill="#ed5749"/><path d="m88 160h48v32h-48z" fill="#ed5749"/><path d="m208 157v38a28.585 28.585 0 0 0 1.36 8.77l16.15-2.69v-50.16l-16.15-2.69a28.585 28.585 0 0 0 -1.36 8.77z" fill="#e5493d"/><path d="m184 168h40v16h-40z" fill="#e5493d"/><path d="m208 168h16v16h-16z" fill="#d4342f" transform="matrix(-1 0 0 -1 432 352)"/><path d="m120 160h16v32h-16z" fill="#e5493d" transform="matrix(-1 0 0 -1 256 352)"/><rect fill="#ed5749" height="64" rx="13" width="64" x="224" y="144"/><path d="m400 128h-16v-32h-256v32h-16v-40a8 8 0 0 1 8-8h272a8 8 0 0 1 8 8z" fill="#e99180"/></g></svg>