<svg id="Capa_1" enable-background="new 0 0 510 510" height="512" viewBox="0 0 510 510" width="512" xmlns="http://www.w3.org/2000/svg"><g><path d="m450 227v110h-15c-24.81 0-45 20.19-45 45v15h-137.18l-18.194-103.242 18.194-126.758h137.18v15c0 24.81 20.19 45 45 45z" fill="#00aa63"/><path d="m252.82 167v230h-132.82v-15c0-24.81-20.19-45-45-45h-15v-110h15c24.81 0 45-20.19 45-45v-15z" fill="#00cc76"/><path d="m60 367h30v30h-30z" fill="#00cc76"/><path d="m420 167h30v30h-30z" fill="#00aa63"/><path d="m420 367h30v30h-30z" fill="#00aa63"/><path d="m310 282c0 30.33-24.67 55-55 55-.73 0-1.45-.01-2.18-.05l-9.095-54.95 9.095-54.95c.73-.04 1.45-.05 2.18-.05 30.33 0 55 24.67 55 55z" fill="#b0eb95"/><path d="m252.82 227.05v109.9c-29.32-1.14-52.82-25.35-52.82-54.95s23.5-53.81 52.82-54.95z" fill="#dffb9d"/><path d="m510 107v350h-257.18l-9.095-15.813 9.095-14.187h227.18v-290h-227.18l-9.095-15 9.095-15z" fill="#00cc76"/><g fill="#b0eb95"><path d="m252.82 107v30h-202.82l27 36-24 18-51.75-69 51.75-69 24 18-27 36z"/><path d="m30 427h222.82v30h-252.82v-245h30z"/></g></g></svg>