<svg id="Capa_1" enable-background="new 0 0 510 510" height="512" viewBox="0 0 510 510" width="512" xmlns="http://www.w3.org/2000/svg"><g><path d="m414.425 0h-369.425v510h369.425c27.887 0 50.575-22.646 50.575-50.482v-409.036c0-27.836-22.688-50.482-50.575-50.482z" fill="#b5dbff"/><path d="m225 0 22.5 243.675-22.5 266.325h-180v-510z" fill="#4bb9ec"/><path d="m405 50.48v409.04c0 27.83-22.95 50.48-51.16 50.48h-128.84v-510h128.84c28.21 0 51.16 22.65 51.16 50.48z" fill="#1982bf"/><g><path d="m225 345h75v30h-75z" fill="#d5e8fe"/><path d="m150 345h75v30h-75z" fill="#edf5ff"/><path d="m225 405h45v30h-45z" fill="#d5e8fe"/><path d="m180 405h45v30h-45z" fill="#edf5ff"/></g><path d="m225 90v-30c-66.17 0-120 53.83-120 120s53.83 120 120 120v-30c-1.66 0-8.14-5-14.27-21.09-5.49-14.42-9.09-33.51-10.29-53.91h24.56v-30h-24.56c1.2-20.4 4.8-39.49 10.29-53.91 6.13-16.09 12.61-21.09 14.27-21.09zm-88.74 105h34.14c1.24 24.12 5.47 46.56 12.22 64.38-24.1-12.92-41.66-36.49-46.36-64.38zm34.14-30h-34.14c4.7-27.89 22.26-51.46 46.36-64.38-6.75 17.82-10.98 40.26-12.22 64.38z" fill="#3b5a71"/><path d="m225 60v30c1.66 0 8.14 5 14.27 21.09 5.49 14.42 9.09 33.51 10.29 53.91h-24.56v30h24.56c-1.2 20.4-4.8 39.49-10.29 53.91-6.13 16.09-12.61 21.09-14.27 21.09v30c66.17 0 120-53.83 120-120s-53.83-120-120-120zm88.74 105h-34.14c-1.24-24.12-5.47-46.56-12.22-64.38 24.1 12.92 41.66 36.49 46.36 64.38zm-46.36 94.38c6.75-17.82 10.98-40.26 12.22-64.38h34.14c-4.7 27.89-22.26 51.46-46.36 64.38z" fill="#2f374f"/></g></svg>